<svg width="26" height="26" viewBox="0 0 26 26" fill="none" xmlns="http://www.w3.org/2000/svg">
<circle cx="13" cy="13" r="13" fill="white"/>
<path d="M5.68542 16.0933V8.54369H7.51889L7.62674 9.53592V16.0933H5.68542ZM9.07195 14.0657C8.62617 14.0657 8.25588 13.9542 7.96108 13.7313C7.67348 13.5085 7.45778 13.1849 7.31397 12.7607C7.17736 12.3365 7.10906 11.8296 7.10906 11.24C7.10906 10.6432 7.17736 10.1363 7.31397 9.71927C7.45778 9.29505 7.67348 8.9715 7.96108 8.7486C8.25588 8.52571 8.62617 8.41426 9.07195 8.41426C9.58245 8.41426 10.0175 8.52571 10.377 8.7486C10.7437 8.9715 11.0241 9.29505 11.2182 9.71927C11.4123 10.1363 11.5094 10.6432 11.5094 11.24C11.5094 11.8296 11.4123 12.3365 11.2182 12.7607C11.0241 13.1849 10.7437 13.5085 10.377 13.7313C10.0175 13.9542 9.58245 14.0657 9.07195 14.0657ZM8.55427 12.2753C8.73402 12.2753 8.8922 12.2322 9.02881 12.1459C9.16543 12.0525 9.27328 11.9302 9.35237 11.7792C9.43865 11.621 9.48179 11.4413 9.48179 11.24C9.48179 11.0387 9.44225 10.8625 9.36315 10.7115C9.28406 10.5533 9.17621 10.4311 9.0396 10.3448C8.90299 10.2585 8.74481 10.2154 8.56505 10.2154C8.3853 10.2154 8.22352 10.2585 8.07972 10.3448C7.93592 10.4311 7.82447 10.5533 7.74538 10.7115C7.66629 10.8625 7.62674 11.0387 7.62674 11.24C7.62674 11.4413 7.66629 11.621 7.74538 11.7792C7.82447 11.9302 7.93232 12.0525 8.06894 12.1459C8.21274 12.2322 8.37451 12.2753 8.55427 12.2753Z" fill="black"/>
<path d="M14.3001 13.9515V8.55897H16.1336L16.2414 9.5512V13.9515H14.3001ZM17.6758 13.9515V11.1905H19.6172V13.9515H17.6758ZM17.6758 11.1905C17.6758 10.982 17.6507 10.8131 17.6004 10.6836C17.5572 10.547 17.4889 10.4428 17.3954 10.3709C17.3092 10.299 17.1977 10.2594 17.0611 10.2522C16.7879 10.2379 16.583 10.299 16.4463 10.4356C16.3097 10.5722 16.2414 10.7879 16.2414 11.0827H15.713C15.713 10.5147 15.7992 10.0329 15.9718 9.63748C16.1444 9.24203 16.378 8.94364 16.6728 8.74232C16.9676 8.5338 17.302 8.42955 17.6758 8.42955C18.1144 8.42955 18.4775 8.51942 18.7651 8.69917C19.0528 8.87174 19.2649 9.13777 19.4015 9.49728C19.5453 9.85678 19.6172 10.3134 19.6172 10.867V11.1905H17.6758Z" fill="black"/>
<path d="M15.8717 20.8841V14.413H17.4432L17.5357 15.2635V20.8841H15.8717ZM18.7744 19.1461C18.3923 19.1461 18.0749 19.0506 17.8223 18.8595C17.5757 18.6685 17.3909 18.3912 17.2676 18.0275C17.1505 17.6639 17.092 17.2294 17.092 16.7241C17.092 16.2126 17.1505 15.7781 17.2676 15.4206C17.3909 15.057 17.5757 14.7797 17.8223 14.5886C18.0749 14.3976 18.3923 14.302 18.7744 14.302C19.212 14.302 19.5849 14.3976 19.893 14.5886C20.2073 14.7797 20.4477 15.057 20.6141 15.4206C20.7805 15.7781 20.8637 16.2126 20.8637 16.7241C20.8637 17.2294 20.7805 17.6639 20.6141 18.0275C20.4477 18.3912 20.2073 18.6685 19.893 18.8595C19.5849 19.0506 19.212 19.1461 18.7744 19.1461ZM18.3307 17.6115C18.4848 17.6115 18.6204 17.5746 18.7375 17.5006C18.8546 17.4205 18.947 17.3157 19.0148 17.1863C19.0887 17.0507 19.1257 16.8966 19.1257 16.7241C19.1257 16.5515 19.0918 16.4005 19.024 16.2711C18.9562 16.1355 18.8638 16.0308 18.7467 15.9568C18.6296 15.8828 18.494 15.8459 18.3399 15.8459C18.1859 15.8459 18.0472 15.8828 17.924 15.9568C17.8007 16.0308 17.7052 16.1355 17.6374 16.2711C17.5696 16.4005 17.5357 16.5515 17.5357 16.7241C17.5357 16.8966 17.5696 17.0507 17.6374 17.1863C17.7052 17.3157 17.7976 17.4205 17.9147 17.5006C18.038 17.5746 18.1766 17.6115 18.3307 17.6115Z" fill="black"/>
<path d="M13.8312 14.413H11.8768L11.8768 8.59573L12.854 5.11591L13.8312 8.59573V14.413Z" fill="black"/>
<path d="M10.2985 14.413H15.4095V17.4945C15.4095 18.7708 14.3748 19.8056 13.0984 19.8056H12.6096C11.3333 19.8056 10.2985 18.7708 10.2985 17.4945V14.413Z" fill="black"/>
</svg>
